# xmcd
#
# Track frame offsets: 
#        150
#        16562
#        34548
#        48575
#        65982
#        82794
#        99632
#        116879
#        134141
#        150870
#        166795
#        185375
#        201044
#
# Disc length: 2873 seconds
#
# Revision: 0
# Processed by: cddbd v1.5.2PL0 Copyright (c) Steve Scherf et al.
# Submitted via: ExactAudioCopy v0.95b4
#
DISCID=a20b370d
DTITLE=Driveway - Traveling Light
DYEAR=2008
DGENRE=Roots, Trad and Southern
TTITLE0=Looks And Money
TTITLE1=Peace Love
TTITLE2=Sweet Lorraine
TTITLE3=Virginia
TTITLE4=Since You've Been Gone
TTITLE5=Hollywood
TTITLE6=Wasted Time
TTITLE7=Collapsing
TTITLE8=California
TTITLE9=Baby's Revolution
TTITLE10=Higher Ground
TTITLE11=I Feel Alright
TTITLE12=Fades To Black
EXTD=
EXTT0=
EXTT1=
EXTT2=
EXTT3=
EXTT4=
EXTT5=
EXTT6=
EXTT7=
EXTT8=
EXTT9=
EXTT10=
EXTT11=
EXTT12=
PLAYORDER=
